<?xml version="1.0" standalone="no"?>
<!DOCTYPE svg PUBLIC "-//W3C//DTD SVG 20010904//EN"
 "http://www.w3.org/TR/2001/REC-SVG-20010904/DTD/svg10.dtd">
<svg version="1.0" xmlns="http://www.w3.org/2000/svg"
 width="575.000000pt" height="575.000000pt" viewBox="0 0 575.000000 575.000000"
 preserveAspectRatio="xMidYMid meet">

 <style> svg { background: white; } </style>

<g transform="translate(0.000000,575.000000) scale(0.100000,-0.100000)"
fill="#ED1703" >
<path d="M0 2875 l0 -2875 2875 0 2875 0 0 2875 0 2875 -2875 0 -2875 0 0
-2875z m3047 2415 c84 -41 101 -56 354 -307 l265 -263 345 0 c368 0 429 -6
525 -51 62 -29 133 -100 163 -162 51 -106 54 -129 58 -517 l4 -365 238 -240
c242 -244 282 -292 329 -393 22 -47 27 -71 27 -143 0 -79 -3 -91 -39 -165 -36
-73 -59 -99 -297 -339 l-257 -260 -5 -380 c-4 -405 -7 -426 -58 -532 -30 -62
-101 -133 -163 -162 -97 -45 -156 -51 -540 -51 l-360 0 -270 -268 c-251 -249
-277 -272 -350 -308 -75 -37 -86 -39 -170 -39 -81 0 -98 3 -156 31 -98 46
-195 131 -424 368 l-208 216 -352 0 c-447 0 -502 11 -613 113 -59 54 -89 107
-113 202 -18 71 -20 111 -20 429 l0 351 -238 235 c-147 144 -255 259 -280 298
-110 169 -111 318 -2 477 18 28 143 161 277 296 l243 245 0 360 c0 328 2 368
20 439 24 95 54 148 113 202 111 103 165 113 621 113 l360 0 260 258 c333 329
390 366 548 359 68 -3 89 -9 165 -47z"/>
<path d="M2775 5253 c-84 -30 -141 -77 -373 -307 l-223 -221 143 -5 143 -5 0
-30 0 -30 -180 -3 -180 -2 -128 -128 c-108 -108 -130 -125 -145 -116 -37 23
-26 45 74 145 l99 99 -305 0 c-319 0 -402 -7 -482 -42 -65 -28 -130 -102 -159
-181 -22 -59 -23 -77 -26 -407 l-4 -345 104 103 c83 83 109 103 128 100 52 -7
34 -39 -101 -173 l-130 -130 0 -745 0 -745 528 -528 527 -527 181 0 c153 0
184 -2 195 -16 9 -11 10 -20 2 -32 -8 -14 -34 -18 -156 -22 l-146 -5 212 -215
c126 -129 238 -233 276 -258 123 -81 219 -90 341 -31 55 27 102 69 305 270
l240 239 -152 0 c-136 0 -153 2 -162 18 -6 11 -6 24 0 35 9 15 30 17 197 17
l187 0 120 120 c122 123 145 136 169 98 9 -15 -4 -33 -89 -119 l-100 -100 345
4 c290 3 353 6 397 20 73 24 143 75 175 127 54 89 61 135 65 493 3 182 1 327
-4 327 -4 0 -58 -49 -118 -110 -60 -60 -117 -110 -126 -110 -26 0 -42 25 -30
47 5 10 68 76 140 148 l131 130 0 747 0 748 -525 525 -526 525 -189 0 c-171 0
-190 2 -199 18 -6 11 -6 24 0 35 9 15 29 17 167 17 l157 0 -235 234 c-211 209
-243 236 -311 270 -94 47 -170 55 -244 29z m-988 -2008 c52 -36 50 -127 -6
-249 -29 -65 -53 -83 -65 -50 -11 29 -6 58 25 146 35 98 34 132 -6 142 -98 25
-247 -106 -249 -219 -1 -61 23 -89 143 -164 112 -69 155 -116 166 -180 11 -63
-11 -120 -65 -172 -62 -61 -126 -83 -223 -77 -136 7 -202 68 -202 185 0 56 3
66 30 93 27 26 103 61 93 42 -40 -75 -50 -109 -45 -150 3 -24 13 -56 24 -71
59 -81 205 -81 285 -1 33 33 38 44 38 85 0 81 -18 101 -202 218 -31 20 -69 52
-84 72 -72 95 5 274 149 341 62 28 160 33 194 9z m1328 6 c7 -12 -17 -71 -103
-256 -89 -189 -132 -315 -134 -395 -2 -75 8 -88 53 -65 48 24 77 53 89 89 6
17 28 43 49 57 49 34 121 144 121 184 0 35 15 55 42 55 16 0 18 -5 12 -34 -4
-24 3 -63 22 -128 15 -51 28 -117 28 -145 0 -29 2 -53 4 -53 1 0 16 7 32 15
45 23 77 74 87 135 7 50 11 55 33 55 l25 0 0 -125 c0 -112 2 -125 18 -128 44
-9 177 195 177 271 0 42 30 83 54 74 26 -10 30 -36 12 -86 -19 -54 -21 -142
-4 -159 37 -37 94 5 121 90 23 72 73 147 104 154 49 13 47 -10 -11 -120 -75
-142 -77 -216 -6 -216 63 0 130 81 165 202 29 99 29 98 10 98 -8 0 -15 5 -15
10 0 6 10 10 23 10 17 0 26 11 41 48 54 136 139 258 171 246 25 -10 14 -44
-54 -169 -34 -60 -61 -113 -61 -117 0 -5 41 -8 90 -8 50 0 90 -4 90 -9 0 -8
-94 -21 -161 -21 -35 0 -40 -3 -55 -37 -45 -108 -52 -242 -13 -266 47 -29 150
36 205 131 30 51 45 43 18 -10 -65 -127 -207 -204 -281 -153 -22 16 -47 81
-37 97 13 20 -10 5 -34 -23 -43 -52 -128 -82 -177 -63 -20 8 -45 56 -45 88 0
24 0 24 -31 9 -28 -14 -34 -14 -64 0 -23 11 -37 27 -45 52 l-12 37 -30 -53
c-17 -29 -52 -74 -79 -101 -39 -39 -55 -48 -82 -48 -45 0 -57 16 -64 84 l-6
55 -28 -24 c-16 -13 -44 -29 -63 -36 -19 -7 -40 -23 -47 -37 -16 -29 -54 -49
-105 -57 -55 -8 -103 19 -130 72 l-21 42 -28 -29 c-57 -59 -129 -76 -166 -39
-19 19 -21 30 -16 85 l5 64 -27 -38 c-15 -20 -51 -58 -80 -85 -44 -39 -60 -47
-92 -47 -44 0 -79 27 -79 60 0 26 -12 25 -36 -1 -28 -31 -88 -59 -127 -59 -40
0 -73 27 -82 68 l-6 29 -42 -43 c-46 -45 -82 -60 -122 -50 -28 7 -43 32 -59
93 l-11 43 -69 -85 c-68 -85 -86 -99 -86 -69 0 19 27 57 99 143 l53 63 -8 51
c-10 56 -33 79 -61 61 -16 -9 -53 -60 -89 -120 -7 -10 -15 -16 -19 -12 -4 3
10 39 32 80 30 58 46 77 76 92 51 24 90 9 113 -45 l17 -38 64 59 c35 33 70 60
78 60 25 0 25 -17 -2 -31 -14 -8 -50 -40 -79 -73 -59 -65 -63 -82 -43 -176 12
-58 40 -73 83 -45 27 18 106 129 106 149 0 22 52 122 78 149 29 31 72 37 72
10 0 -9 -17 -46 -39 -82 -82 -139 -93 -241 -25 -241 60 0 107 45 162 155 40
81 111 158 174 189 69 35 111 33 120 -4 2 -11 -6 -13 -35 -11 -66 5 -125 -46
-180 -156 -33 -64 -44 -127 -27 -148 53 -63 179 84 268 312 112 287 173 403
212 403 10 0 21 -4 25 -9z m-560 -212 c22 -35 -32 -87 -79 -75 -33 8 -35 48
-4 70 26 18 74 21 83 5z m1540 -18 c0 -32 -45 -66 -78 -57 -36 9 -41 33 -12
62 34 34 90 31 90 -5z"/>
<path d="M3147 2729 c-26 -35 -47 -69 -47 -75 0 -16 62 -72 93 -83 24 -9 27
-8 28 12 3 44 -3 103 -15 156 l-12 53 -47 -63z"/>
<path d="M3076 2623 c-3 -3 -6 -22 -6 -40 0 -25 8 -43 29 -64 33 -33 56 -36
89 -13 29 20 28 32 -2 44 -14 5 -43 25 -64 44 -21 20 -42 33 -46 29z"/>
<path d="M3891 4489 c85 -89 298 -303 474 -476 l320 -314 3 253 c5 384 -17
507 -102 592 -92 92 -162 106 -550 106 l-298 0 153 -161z"/>
<path d="M4757 3370 c-8 -187 -7 -948 2 -1083 l6 -98 226 228 c195 196 230
238 259 297 29 57 34 80 34 136 0 59 -5 79 -39 146 -35 71 -60 101 -260 303
l-222 224 -6 -153z"/>
<path d="M743 3288 c-273 -276 -322 -352 -311 -482 10 -122 86 -225 357 -484
l171 -164 0 671 c0 369 -1 671 -3 671 -2 0 -98 -96 -214 -212z"/>
<path d="M1032 1655 c4 -310 5 -334 26 -397 28 -83 91 -157 160 -186 82 -35
170 -43 475 -40 l287 3 -475 475 -476 475 3 -330z"/>
</g>
</svg>
